<svg width="5294" height="1971" xmlns="http://www.w3.org/2000/svg" xmlns:xlink="http://www.w3.org/1999/xlink" overflow="hidden"><defs><clipPath id="clip0"><rect x="980" y="2057" width="5294" height="1971"/></clipPath><clipPath id="clip1"><rect x="983" y="2060" width="5287" height="1964"/></clipPath><clipPath id="clip2"><rect x="1234" y="2225" width="4989" height="1607"/></clipPath><clipPath id="clip3"><rect x="983" y="2060" width="5287" height="1964"/></clipPath><clipPath id="clip4"><rect x="983" y="2060" width="5287" height="1964"/></clipPath><clipPath id="clip5"><rect x="983" y="2060" width="5287" height="1964"/></clipPath><clipPath id="clip6"><rect x="983" y="2060" width="5287" height="1964"/></clipPath><clipPath id="clip7"><rect x="983" y="2060" width="5287" height="1964"/></clipPath><clipPath id="clip8"><rect x="983" y="2060" width="5287" height="1964"/></clipPath><clipPath id="clip9"><rect x="983" y="2060" width="5287" height="1964"/></clipPath><clipPath id="clip10"><rect x="983" y="2060" width="5287" height="1964"/></clipPath><clipPath id="clip11"><rect x="983" y="2060" width="5287" height="1964"/></clipPath><clipPath id="clip12"><rect x="983" y="2060" width="5287" height="1964"/></clipPath><clipPath id="clip13"><rect x="983" y="2060" width="5287" height="1964"/></clipPath><clipPath id="clip14"><rect x="983" y="2060" width="5287" height="1964"/></clipPath><clipPath id="clip15"><rect x="983" y="2060" width="5287" height="1964"/></clipPath><clipPath id="clip16"><rect x="983" y="2060" width="5287" height="1964"/></clipPath><clipPath id="clip17"><rect x="983" y="2060" width="5287" height="1964"/></clipPath><clipPath id="clip18"><rect x="983" y="2060" width="5287" height="1964"/></clipPath><clipPath id="clip19"><rect x="983" y="2060" width="5287" height="1964"/></clipPath><clipPath id="clip20"><rect x="983" y="2060" width="5287" height="1964"/></clipPath><clipPath id="clip21"><rect x="983" y="2060" width="5287" height="1964"/></clipPath><clipPath id="clip22"><rect x="983" y="2060" width="5287" height="1964"/></clipPath><clipPath id="clip23"><rect x="983" y="2060" width="5287" height="1964"/></clipPath><clipPath id="clip24"><rect x="983" y="2060" width="5287" height="1964"/></clipPath><clipPath id="clip25"><rect x="983" y="2060" width="5287" height="1964"/></clipPath><clipPath id="clip26"><rect x="983" y="2060" width="5287" height="1964"/></clipPath><clipPath id="clip27"><rect x="983" y="2060" width="5287" height="1964"/></clipPath><clipPath id="clip28"><rect x="983" y="2060" width="5287" height="1964"/></clipPath><clipPath id="clip29"><rect x="983" y="2060" width="5287" height="1964"/></clipPath><clipPath id="clip30"><rect x="983" y="2060" width="5287" height="1964"/></clipPath><clipPath id="clip31"><rect x="983" y="2060" width="5287" height="1964"/></clipPath><clipPath id="clip32"><rect x="983" y="2060" width="5287" height="1964"/></clipPath><clipPath id="clip33"><rect x="983" y="2060" width="5287" height="1964"/></clipPath><clipPath id="clip34"><rect x="983" y="2060" width="5287" height="1964"/></clipPath><clipPath id="clip35"><rect x="983" y="2060" width="5287" height="1964"/></clipPath><clipPath id="clip36"><rect x="983" y="2060" width="5287" height="1964"/></clipPath><clipPath id="clip37"><rect x="983" y="2060" width="5287" height="1964"/></clipPath><clipPath id="clip38"><rect x="983" y="2060" width="5287" height="1964"/></clipPath><clipPath id="clip39"><rect x="983" y="2060" width="5287" height="1964"/></clipPath><clipPath id="clip40"><rect x="983" y="2060" width="5287" height="1964"/></clipPath><clipPath id="clip41"><rect x="983" y="2060" width="5287" height="1964"/></clipPath><clipPath id="clip42"><rect x="983" y="2060" width="5287" height="1964"/></clipPath><clipPath id="clip43"><rect x="983" y="2060" width="5287" height="1964"/></clipPath><clipPath id="clip44"><rect x="983" y="2060" width="5287" height="1964"/></clipPath><clipPath id="clip45"><rect x="983" y="2060" width="5287" height="1964"/></clipPath><clipPath id="clip46"><rect x="983" y="2060" width="5287" height="1964"/></clipPath><clipPath id="clip47"><rect x="983" y="2060" width="5287" height="1964"/></clipPath><clipPath id="clip48"><rect x="983" y="2060" width="5287" height="1964"/></clipPath><clipPath id="clip49"><rect x="983" y="2060" width="5287" height="1964"/></clipPath><clipPath id="clip50"><rect x="983" y="2060" width="5287" height="1964"/></clipPath><clipPath id="clip51"><rect x="983" y="2060" width="5287" height="1964"/></clipPath><clipPath id="clip52"><rect x="983" y="2060" width="5287" height="1964"/></clipPath><clipPath id="clip53"><rect x="983" y="2060" width="5287" height="1964"/></clipPath><clipPath id="clip54"><rect x="983" y="2060" width="5287" height="1964"/></clipPath><clipPath id="clip55"><rect x="983" y="2060" width="5287" height="1964"/></clipPath><clipPath id="clip56"><rect x="983" y="2060" width="5287" height="1964"/></clipPath><clipPath id="clip57"><rect x="983" y="2060" width="5287" height="1964"/></clipPath><clipPath id="clip58"><rect x="983" y="2060" width="5287" height="1964"/></clipPath><clipPath id="clip59"><rect x="983" y="2060" width="5287" height="1964"/></clipPath><clipPath id="clip60"><rect x="983" y="2060" width="5287" height="1964"/></clipPath><clipPath id="clip61"><rect x="983" y="2060" width="5287" height="1964"/></clipPath><clipPath id="clip62"><rect x="983" y="2060" width="5287" height="1964"/></clipPath><clipPath id="clip63"><rect x="983" y="2060" width="5287" height="1964"/></clipPath><clipPath id="clip64"><rect x="983" y="2060" width="5287" height="1964"/></clipPath><clipPath id="clip65"><rect x="983" y="2060" width="5287" height="1964"/></clipPath><clipPath id="clip66"><rect x="983" y="2060" width="5287" height="1964"/></clipPath></defs><g clip-path="url(#clip0)" transform="translate(-980 -2057)"><rect x="983" y="2060" width="5287" height="1964" fill="#FFFFFF" fill-opacity="1"/><g clip-path="url(#clip1)"><path d="M1234.5 3600.62 6219.5 3600.62M1234.5 3371.61 6219.5 3371.61M1234.5 3142.6 6219.5 3142.6M1234.5 2912.6 6219.5 2912.6M1234.5 2683.59 6219.5 2683.59M1234.5 2454.58 6219.5 2454.58M1234.5 2225.5 6219.5 2225.5" stroke="#D9D9D9" stroke-width="3.4375" stroke-linecap="butt" stroke-linejoin="round" stroke-miterlimit="10" stroke-opacity="1" fill="none" fill-rule="nonzero"/></g><g clip-path="url(#clip2)"><path d="M1268.04 2749.09 1300.04 2749.09 1300.04 3830 1268.04 3830ZM1368.04 2664.09 1399.05 2664.09 1399.05 3830 1368.04 3830ZM1567.05 2436.08 1599.05 2436.08 1599.05 3830 1567.05 3830ZM1667.05 2652.09 1698.06 2652.09 1698.06 3830 1667.05 3830ZM1767.06 2680.09 1798.06 2680.09 1798.06 3830 1767.06 3830ZM1866.06 2719.09 1898.06 2719.09 1898.06 3830 1866.06 3830ZM1966.06 2408.08 1997.07 2408.08 1997.07 3830 1966.06 3830ZM2066.07 2717.09 2097.07 2717.09 2097.07 3830 2066.07 3830ZM2166.07 2763.09 2197.07 2763.09 2197.07 3830 2166.07 3830ZM2265.07 2583.08 2297.08 2583.08 2297.08 3830 2265.07 3830ZM2365.08 2576.08 2396.08 2576.08 2396.08 3830 2365.08 3830ZM2465.08 2711.09 2496.08 2711.09 2496.08 3830 2465.08 3830ZM2564.08 2719.09 2596.09 2719.09 2596.09 3830 2564.08 3830ZM2664.09 2665.09 2695.09 2665.09 2695.09 3830 2664.09 3830ZM2764.09 2633.09 2795.09 2633.09 2795.09 3830 2764.09 3830ZM2864.09 2763.09 2895.09 2763.09 2895.09 3830 2864.09 3830ZM2963.1 2741.09 2995.1 2741.09 2995.1 3830 2963.1 3830ZM3063.1 2712.09 3094.1 2712.09 3094.1 3830 3063.1 3830ZM3163.1 2686.09 3194.1 2686.09 3194.1 3830 3163.1 3830ZM3262.11 2714.09 3294.11 2714.09 3294.11 3830 3262.11 3830ZM3462.11 2668.09 3493.11 2668.09 3493.11 3830 3462.11 3830ZM3562.12 2673.09 3593.12 2673.09 3593.12 3830 3562.12 3830ZM3661.12 2707.09 3692.12 2707.09 3692.12 3830 3661.12 3830ZM3761.12 2652.09 3792.12 2652.09 3792.12 3830 3761.12 3830ZM3861.13 2538.08 3892.13 2538.08 3892.13 3830 3861.13 3830ZM3960.13 2740.09 3992.13 2740.09 3992.13 3830 3960.13 3830ZM4060.13 2542.08 4091.13 2542.08 4091.13 3830 4060.13 3830ZM4160.14 2711.09 4191.14 2711.09 4191.14 3830 4160.14 3830ZM4259.14 2727.09 4291.14 2727.09 4291.14 3830 4259.14 3830ZM4459.15 2677.09 4490.15 2677.09 4490.15 3830 4459.15 3830ZM4559.15 2376.08 4590.15 2376.08 4590.15 3830 4559.15 3830ZM4658.15 2683.09 4690.15 2683.09 4690.15 3830 4658.15 3830ZM4758.16 2486.08 4789.16 2486.08 4789.16 3830 4758.16 3830ZM4858.16 2471.08 4889.16 2471.08 4889.16 3830 4858.16 3830ZM4957.16 2719.09 4989.16 2719.09 4989.16 3830 4957.16 3830ZM5057.17 2677.09 5088.17 2677.09 5088.17 3830 5057.17 3830ZM5157.17 2665.09 5188.17 2665.09 5188.17 3830 5157.17 3830ZM5257.17 2706.09 5288.17 2706.09 5288.17 3830 5257.17 3830ZM5456.18 2709.09 5487.18 2709.09 5487.18 3830 5456.18 3830ZM5556.18 2580.08 5587.18 2580.08 5587.18 3830 5556.18 3830ZM5655.19 2716.09 5687.19 2716.09 5687.19 3830 5655.19 3830ZM5755.19 2714.09 5786.19 2714.09 5786.19 3830 5755.19 3830ZM5855.19 2686.09 5886.19 2686.09 5886.19 3830 5855.19 3830ZM5954.2 2728.09 5986.2 2728.09 5986.2 3830 5954.2 3830ZM6054.2 2640.09 6085.2 2640.09 6085.2 3830 6054.2 3830ZM6154.2 2677.09 6185.2 2677.09 6185.2 3830 6154.2 3830Z" fill="#4472C4" fill-rule="nonzero" fill-opacity="1"/></g><g clip-path="url(#clip3)"><path d="M1234.5 3829.5 6219.5 3829.5" stroke="#D9D9D9" stroke-width="3.4375" stroke-linecap="butt" stroke-linejoin="round" stroke-miterlimit="10" stroke-opacity="1" fill="none" fill-rule="evenodd"/></g><g clip-path="url(#clip4)"><text fill="#595959" fill-opacity="1" font-family="Arial,Arial_MSFontService,sans-serif" font-style="normal" font-variant="normal" font-weight="400" font-stretch="normal" font-size="41" text-anchor="start" direction="ltr" writing-mode="lr-tb" unicode-bidi="normal" text-decoration="none" transform="matrix(1 0 0 1 1175.65 3842)">0</text></g><g clip-path="url(#clip5)"><text fill="#595959" fill-opacity="1" font-family="Arial,Arial_MSFontService,sans-serif" font-style="normal" font-variant="normal" font-weight="400" font-stretch="normal" font-size="41" text-anchor="start" direction="ltr" writing-mode="lr-tb" unicode-bidi="normal" text-decoration="none" transform="matrix(1 0 0 1 1129.77 3612)">200</text></g><g clip-path="url(#clip6)"><text fill="#595959" fill-opacity="1" font-family="Arial,Arial_MSFontService,sans-serif" font-style="normal" font-variant="normal" font-weight="400" font-stretch="normal" font-size="41" text-anchor="start" direction="ltr" writing-mode="lr-tb" unicode-bidi="normal" text-decoration="none" transform="matrix(1 0 0 1 1129.77 3383)">400</text></g><g clip-path="url(#clip7)"><text fill="#595959" fill-opacity="1" font-family="Arial,Arial_MSFontService,sans-serif" font-style="normal" font-variant="normal" font-weight="400" font-stretch="normal" font-size="41" text-anchor="start" direction="ltr" writing-mode="lr-tb" unicode-bidi="normal" text-decoration="none" transform="matrix(1 0 0 1 1129.77 3154)">600</text></g><g clip-path="url(#clip8)"><text fill="#595959" fill-opacity="1" font-family="Arial,Arial_MSFontService,sans-serif" font-style="normal" font-variant="normal" font-weight="400" font-stretch="normal" font-size="41" text-anchor="start" direction="ltr" writing-mode="lr-tb" unicode-bidi="normal" text-decoration="none" transform="matrix(1 0 0 1 1129.77 2925)">800</text></g><g clip-path="url(#clip9)"><text fill="#595959" fill-opacity="1" font-family="Arial,Arial_MSFontService,sans-serif" font-style="normal" font-variant="normal" font-weight="400" font-stretch="normal" font-size="41" text-anchor="start" direction="ltr" writing-mode="lr-tb" unicode-bidi="normal" text-decoration="none" transform="matrix(1 0 0 1 1106.83 2696)">1000</text></g><g clip-path="url(#clip10)"><text fill="#595959" fill-opacity="1" font-family="Arial,Arial_MSFontService,sans-serif" font-style="normal" font-variant="normal" font-weight="400" font-stretch="normal" font-size="41" text-anchor="start" direction="ltr" writing-mode="lr-tb" unicode-bidi="normal" text-decoration="none" transform="matrix(1 0 0 1 1106.83 2467)">1200</text></g><g clip-path="url(#clip11)"><text fill="#595959" fill-opacity="1" font-family="Arial,Arial_MSFontService,sans-serif" font-style="normal" font-variant="normal" font-weight="400" font-stretch="normal" font-size="41" text-anchor="start" direction="ltr" writing-mode="lr-tb" unicode-bidi="normal" text-decoration="none" transform="matrix(1 0 0 1 1106.83 2238)">1400</text></g><g clip-path="url(#clip12)"><text fill="#595959" fill-opacity="1" font-family="Arial,Arial_MSFontService,sans-serif" font-style="normal" font-variant="normal" font-weight="400" font-stretch="normal" font-size="41" text-anchor="start" direction="ltr" writing-mode="lr-tb" unicode-bidi="normal" text-decoration="none" transform="matrix(1 0 0 1 1272.45 3891)">1</text></g><g clip-path="url(#clip13)"><text fill="#595959" fill-opacity="1" font-family="Arial,Arial_MSFontService,sans-serif" font-style="normal" font-variant="normal" font-weight="400" font-stretch="normal" font-size="41" text-anchor="start" direction="ltr" writing-mode="lr-tb" unicode-bidi="normal" text-decoration="none" transform="matrix(1 0 0 1 1372.16 3891)">2</text></g><g clip-path="url(#clip14)"><text fill="#595959" fill-opacity="1" font-family="Arial,Arial_MSFontService,sans-serif" font-style="normal" font-variant="normal" font-weight="400" font-stretch="normal" font-size="41" text-anchor="start" direction="ltr" writing-mode="lr-tb" unicode-bidi="normal" text-decoration="none" transform="matrix(1 0 0 1 1471.87 3891)">3</text></g><g clip-path="url(#clip15)"><text fill="#595959" fill-opacity="1" font-family="Arial,Arial_MSFontService,sans-serif" font-style="normal" font-variant="normal" font-weight="400" font-stretch="normal" font-size="41" text-anchor="start" direction="ltr" writing-mode="lr-tb" unicode-bidi="normal" text-decoration="none" transform="matrix(1 0 0 1 1571.58 3891)">4</text></g><g clip-path="url(#clip16)"><text fill="#595959" fill-opacity="1" font-family="Arial,Arial_MSFontService,sans-serif" font-style="normal" font-variant="normal" font-weight="400" font-stretch="normal" font-size="41" text-anchor="start" direction="ltr" writing-mode="lr-tb" unicode-bidi="normal" text-decoration="none" transform="matrix(1 0 0 1 1671.29 3891)">5</text></g><g clip-path="url(#clip17)"><text fill="#595959" fill-opacity="1" font-family="Arial,Arial_MSFontService,sans-serif" font-style="normal" font-variant="normal" font-weight="400" font-stretch="normal" font-size="41" text-anchor="start" direction="ltr" writing-mode="lr-tb" unicode-bidi="normal" text-decoration="none" transform="matrix(1 0 0 1 1771 3891)">6</text></g><g clip-path="url(#clip18)"><text fill="#595959" fill-opacity="1" font-family="Arial,Arial_MSFontService,sans-serif" font-style="normal" font-variant="normal" font-weight="400" font-stretch="normal" font-size="41" text-anchor="start" direction="ltr" writing-mode="lr-tb" unicode-bidi="normal" text-decoration="none" transform="matrix(1 0 0 1 1870.71 3891)">7</text></g><g clip-path="url(#clip19)"><text fill="#595959" fill-opacity="1" font-family="Arial,Arial_MSFontService,sans-serif" font-style="normal" font-variant="normal" font-weight="400" font-stretch="normal" font-size="41" text-anchor="start" direction="ltr" writing-mode="lr-tb" unicode-bidi="normal" text-decoration="none" transform="matrix(1 0 0 1 1970.42 3891)">8</text></g><g clip-path="url(#clip20)"><text fill="#595959" fill-opacity="1" font-family="Arial,Arial_MSFontService,sans-serif" font-style="normal" font-variant="normal" font-weight="400" font-stretch="normal" font-size="41" text-anchor="start" direction="ltr" writing-mode="lr-tb" unicode-bidi="normal" text-decoration="none" transform="matrix(1 0 0 1 2070.13 3891)">9</text></g><g clip-path="url(#clip21)"><text fill="#595959" fill-opacity="1" font-family="Arial,Arial_MSFontService,sans-serif" font-style="normal" font-variant="normal" font-weight="400" font-stretch="normal" font-size="41" text-anchor="start" direction="ltr" writing-mode="lr-tb" unicode-bidi="normal" text-decoration="none" transform="matrix(1 0 0 1 2158.37 3891)">10</text></g><g clip-path="url(#clip22)"><text fill="#595959" fill-opacity="1" font-family="Arial,Arial_MSFontService,sans-serif" font-style="normal" font-variant="normal" font-weight="400" font-stretch="normal" font-size="41" text-anchor="start" direction="ltr" writing-mode="lr-tb" unicode-bidi="normal" text-decoration="none" transform="matrix(1 0 0 1 2258.08 3891)">11</text></g><g clip-path="url(#clip23)"><text fill="#595959" fill-opacity="1" font-family="Arial,Arial_MSFontService,sans-serif" font-style="normal" font-variant="normal" font-weight="400" font-stretch="normal" font-size="41" text-anchor="start" direction="ltr" writing-mode="lr-tb" unicode-bidi="normal" text-decoration="none" transform="matrix(1 0 0 1 2357.79 3891)">12</text></g><g clip-path="url(#clip24)"><text fill="#595959" fill-opacity="1" font-family="Arial,Arial_MSFontService,sans-serif" font-style="normal" font-variant="normal" font-weight="400" font-stretch="normal" font-size="41" text-anchor="start" direction="ltr" writing-mode="lr-tb" unicode-bidi="normal" text-decoration="none" transform="matrix(1 0 0 1 2457.5 3891)">13</text></g><g clip-path="url(#clip25)"><text fill="#595959" fill-opacity="1" font-family="Arial,Arial_MSFontService,sans-serif" font-style="normal" font-variant="normal" font-weight="400" font-stretch="normal" font-size="41" text-anchor="start" direction="ltr" writing-mode="lr-tb" unicode-bidi="normal" text-decoration="none" transform="matrix(1 0 0 1 2557.21 3891)">14</text></g><g clip-path="url(#clip26)"><text fill="#595959" fill-opacity="1" font-family="Arial,Arial_MSFontService,sans-serif" font-style="normal" font-variant="normal" font-weight="400" font-stretch="normal" font-size="41" text-anchor="start" direction="ltr" writing-mode="lr-tb" unicode-bidi="normal" text-decoration="none" transform="matrix(1 0 0 1 2656.92 3891)">15</text></g><g clip-path="url(#clip27)"><text fill="#595959" fill-opacity="1" font-family="Arial,Arial_MSFontService,sans-serif" font-style="normal" font-variant="normal" font-weight="400" font-stretch="normal" font-size="41" text-anchor="start" direction="ltr" writing-mode="lr-tb" unicode-bidi="normal" text-decoration="none" transform="matrix(1 0 0 1 2756.63 3891)">16</text></g><g clip-path="url(#clip28)"><text fill="#595959" fill-opacity="1" font-family="Arial,Arial_MSFontService,sans-serif" font-style="normal" font-variant="normal" font-weight="400" font-stretch="normal" font-size="41" text-anchor="start" direction="ltr" writing-mode="lr-tb" unicode-bidi="normal" text-decoration="none" transform="matrix(1 0 0 1 2856.34 3891)">17</text></g><g clip-path="url(#clip29)"><text fill="#595959" fill-opacity="1" font-family="Arial,Arial_MSFontService,sans-serif" font-style="normal" font-variant="normal" font-weight="400" font-stretch="normal" font-size="41" text-anchor="start" direction="ltr" writing-mode="lr-tb" unicode-bidi="normal" text-decoration="none" transform="matrix(1 0 0 1 2956.06 3891)">18</text></g><g clip-path="url(#clip30)"><text fill="#595959" fill-opacity="1" font-family="Arial,Arial_MSFontService,sans-serif" font-style="normal" font-variant="normal" font-weight="400" font-stretch="normal" font-size="41" text-anchor="start" direction="ltr" writing-mode="lr-tb" unicode-bidi="normal" text-decoration="none" transform="matrix(1 0 0 1 3055.77 3891)">19</text></g><g clip-path="url(#clip31)"><text fill="#595959" fill-opacity="1" font-family="Arial,Arial_MSFontService,sans-serif" font-style="normal" font-variant="normal" font-weight="400" font-stretch="normal" font-size="41" text-anchor="start" direction="ltr" writing-mode="lr-tb" unicode-bidi="normal" text-decoration="none" transform="matrix(1 0 0 1 3155.48 3891)">20</text></g><g clip-path="url(#clip32)"><text fill="#595959" fill-opacity="1" font-family="Arial,Arial_MSFontService,sans-serif" font-style="normal" font-variant="normal" font-weight="400" font-stretch="normal" font-size="41" text-anchor="start" direction="ltr" writing-mode="lr-tb" unicode-bidi="normal" text-decoration="none" transform="matrix(1 0 0 1 3255.19 3891)">21</text></g><g clip-path="url(#clip33)"><text fill="#595959" fill-opacity="1" font-family="Arial,Arial_MSFontService,sans-serif" font-style="normal" font-variant="normal" font-weight="400" font-stretch="normal" font-size="41" text-anchor="start" direction="ltr" writing-mode="lr-tb" unicode-bidi="normal" text-decoration="none" transform="matrix(1 0 0 1 3354.9 3891)">22</text></g><g clip-path="url(#clip34)"><text fill="#595959" fill-opacity="1" font-family="Arial,Arial_MSFontService,sans-serif" font-style="normal" font-variant="normal" font-weight="400" font-stretch="normal" font-size="41" text-anchor="start" direction="ltr" writing-mode="lr-tb" unicode-bidi="normal" text-decoration="none" transform="matrix(1 0 0 1 3454.61 3891)">23</text></g><g clip-path="url(#clip35)"><text fill="#595959" fill-opacity="1" font-family="Arial,Arial_MSFontService,sans-serif" font-style="normal" font-variant="normal" font-weight="400" font-stretch="normal" font-size="41" text-anchor="start" direction="ltr" writing-mode="lr-tb" unicode-bidi="normal" text-decoration="none" transform="matrix(1 0 0 1 3554.32 3891)">24</text></g><g clip-path="url(#clip36)"><text fill="#595959" fill-opacity="1" font-family="Arial,Arial_MSFontService,sans-serif" font-style="normal" font-variant="normal" font-weight="400" font-stretch="normal" font-size="41" text-anchor="start" direction="ltr" writing-mode="lr-tb" unicode-bidi="normal" text-decoration="none" transform="matrix(1 0 0 1 3654.03 3891)">25</text></g><g clip-path="url(#clip37)"><text fill="#595959" fill-opacity="1" font-family="Arial,Arial_MSFontService,sans-serif" font-style="normal" font-variant="normal" font-weight="400" font-stretch="normal" font-size="41" text-anchor="start" direction="ltr" writing-mode="lr-tb" unicode-bidi="normal" text-decoration="none" transform="matrix(1 0 0 1 3753.74 3891)">26</text></g><g clip-path="url(#clip38)"><text fill="#595959" fill-opacity="1" font-family="Arial,Arial_MSFontService,sans-serif" font-style="normal" font-variant="normal" font-weight="400" font-stretch="normal" font-size="41" text-anchor="start" direction="ltr" writing-mode="lr-tb" unicode-bidi="normal" text-decoration="none" transform="matrix(1 0 0 1 3853.45 3891)">27</text></g><g clip-path="url(#clip39)"><text fill="#595959" fill-opacity="1" font-family="Arial,Arial_MSFontService,sans-serif" font-style="normal" font-variant="normal" font-weight="400" font-stretch="normal" font-size="41" text-anchor="start" direction="ltr" writing-mode="lr-tb" unicode-bidi="normal" text-decoration="none" transform="matrix(1 0 0 1 3953.16 3891)">28</text></g><g clip-path="url(#clip40)"><text fill="#595959" fill-opacity="1" font-family="Arial,Arial_MSFontService,sans-serif" font-style="normal" font-variant="normal" font-weight="400" font-stretch="normal" font-size="41" text-anchor="start" direction="ltr" writing-mode="lr-tb" unicode-bidi="normal" text-decoration="none" transform="matrix(1 0 0 1 4052.87 3891)">29</text></g><g clip-path="url(#clip41)"><text fill="#595959" fill-opacity="1" font-family="Arial,Arial_MSFontService,sans-serif" font-style="normal" font-variant="normal" font-weight="400" font-stretch="normal" font-size="41" text-anchor="start" direction="ltr" writing-mode="lr-tb" unicode-bidi="normal" text-decoration="none" transform="matrix(1 0 0 1 4152.58 3891)">30</text></g><g clip-path="url(#clip42)"><text fill="#595959" fill-opacity="1" font-family="Arial,Arial_MSFontService,sans-serif" font-style="normal" font-variant="normal" font-weight="400" font-stretch="normal" font-size="41" text-anchor="start" direction="ltr" writing-mode="lr-tb" unicode-bidi="normal" text-decoration="none" transform="matrix(1 0 0 1 4252.29 3891)">31</text></g><g clip-path="url(#clip43)"><text fill="#595959" fill-opacity="1" font-family="Arial,Arial_MSFontService,sans-serif" font-style="normal" font-variant="normal" font-weight="400" font-stretch="normal" font-size="41" text-anchor="start" direction="ltr" writing-mode="lr-tb" unicode-bidi="normal" text-decoration="none" transform="matrix(1 0 0 1 4352 3891)">32</text></g><g clip-path="url(#clip44)"><text fill="#595959" fill-opacity="1" font-family="Arial,Arial_MSFontService,sans-serif" font-style="normal" font-variant="normal" font-weight="400" font-stretch="normal" font-size="41" text-anchor="start" direction="ltr" writing-mode="lr-tb" unicode-bidi="normal" text-decoration="none" transform="matrix(1 0 0 1 4451.71 3891)">33</text></g><g clip-path="url(#clip45)"><text fill="#595959" fill-opacity="1" font-family="Arial,Arial_MSFontService,sans-serif" font-style="normal" font-variant="normal" font-weight="400" font-stretch="normal" font-size="41" text-anchor="start" direction="ltr" writing-mode="lr-tb" unicode-bidi="normal" text-decoration="none" transform="matrix(1 0 0 1 4551.42 3891)">34</text></g><g clip-path="url(#clip46)"><text fill="#595959" fill-opacity="1" font-family="Arial,Arial_MSFontService,sans-serif" font-style="normal" font-variant="normal" font-weight="400" font-stretch="normal" font-size="41" text-anchor="start" direction="ltr" writing-mode="lr-tb" unicode-bidi="normal" text-decoration="none" transform="matrix(1 0 0 1 4651.13 3891)">35</text></g><g clip-path="url(#clip47)"><text fill="#595959" fill-opacity="1" font-family="Arial,Arial_MSFontService,sans-serif" font-style="normal" font-variant="normal" font-weight="400" font-stretch="normal" font-size="41" text-anchor="start" direction="ltr" writing-mode="lr-tb" unicode-bidi="normal" text-decoration="none" transform="matrix(1 0 0 1 4750.84 3891)">36</text></g><g clip-path="url(#clip48)"><text fill="#595959" fill-opacity="1" font-family="Arial,Arial_MSFontService,sans-serif" font-style="normal" font-variant="normal" font-weight="400" font-stretch="normal" font-size="41" text-anchor="start" direction="ltr" writing-mode="lr-tb" unicode-bidi="normal" text-decoration="none" transform="matrix(1 0 0 1 4850.55 3891)">37</text></g><g clip-path="url(#clip49)"><text fill="#595959" fill-opacity="1" font-family="Arial,Arial_MSFontService,sans-serif" font-style="normal" font-variant="normal" font-weight="400" font-stretch="normal" font-size="41" text-anchor="start" direction="ltr" writing-mode="lr-tb" unicode-bidi="normal" text-decoration="none" transform="matrix(1 0 0 1 4950.26 3891)">38</text></g><g clip-path="url(#clip50)"><text fill="#595959" fill-opacity="1" font-family="Arial,Arial_MSFontService,sans-serif" font-style="normal" font-variant="normal" font-weight="400" font-stretch="normal" font-size="41" text-anchor="start" direction="ltr" writing-mode="lr-tb" unicode-bidi="normal" text-decoration="none" transform="matrix(1 0 0 1 5049.97 3891)">39</text></g><g clip-path="url(#clip51)"><text fill="#595959" fill-opacity="1" font-family="Arial,Arial_MSFontService,sans-serif" font-style="normal" font-variant="normal" font-weight="400" font-stretch="normal" font-size="41" text-anchor="start" direction="ltr" writing-mode="lr-tb" unicode-bidi="normal" text-decoration="none" transform="matrix(1 0 0 1 5149.68 3891)">40</text></g><g clip-path="url(#clip52)"><text fill="#595959" fill-opacity="1" font-family="Arial,Arial_MSFontService,sans-serif" font-style="normal" font-variant="normal" font-weight="400" font-stretch="normal" font-size="41" text-anchor="start" direction="ltr" writing-mode="lr-tb" unicode-bidi="normal" text-decoration="none" transform="matrix(1 0 0 1 5249.39 3891)">41</text></g><g clip-path="url(#clip53)"><text fill="#595959" fill-opacity="1" font-family="Arial,Arial_MSFontService,sans-serif" font-style="normal" font-variant="normal" font-weight="400" font-stretch="normal" font-size="41" text-anchor="start" direction="ltr" writing-mode="lr-tb" unicode-bidi="normal" text-decoration="none" transform="matrix(1 0 0 1 5349.1 3891)">42</text></g><g clip-path="url(#clip54)"><text fill="#595959" fill-opacity="1" font-family="Arial,Arial_MSFontService,sans-serif" font-style="normal" font-variant="normal" font-weight="400" font-stretch="normal" font-size="41" text-anchor="start" direction="ltr" writing-mode="lr-tb" unicode-bidi="normal" text-decoration="none" transform="matrix(1 0 0 1 5448.82 3891)">43</text></g><g clip-path="url(#clip55)"><text fill="#595959" fill-opacity="1" font-family="Arial,Arial_MSFontService,sans-serif" font-style="normal" font-variant="normal" font-weight="400" font-stretch="normal" font-size="41" text-anchor="start" direction="ltr" writing-mode="lr-tb" unicode-bidi="normal" text-decoration="none" transform="matrix(1 0 0 1 5548.53 3891)">44</text></g><g clip-path="url(#clip56)"><text fill="#595959" fill-opacity="1" font-family="Arial,Arial_MSFontService,sans-serif" font-style="normal" font-variant="normal" font-weight="400" font-stretch="normal" font-size="41" text-anchor="start" direction="ltr" writing-mode="lr-tb" unicode-bidi="normal" text-decoration="none" transform="matrix(1 0 0 1 5648.24 3891)">45</text></g><g clip-path="url(#clip57)"><text fill="#595959" fill-opacity="1" font-family="Arial,Arial_MSFontService,sans-serif" font-style="normal" font-variant="normal" font-weight="400" font-stretch="normal" font-size="41" text-anchor="start" direction="ltr" writing-mode="lr-tb" unicode-bidi="normal" text-decoration="none" transform="matrix(1 0 0 1 5747.95 3891)">46</text></g><g clip-path="url(#clip58)"><text fill="#595959" fill-opacity="1" font-family="Arial,Arial_MSFontService,sans-serif" font-style="normal" font-variant="normal" font-weight="400" font-stretch="normal" font-size="41" text-anchor="start" direction="ltr" writing-mode="lr-tb" unicode-bidi="normal" text-decoration="none" transform="matrix(1 0 0 1 5847.66 3891)">47</text></g><g clip-path="url(#clip59)"><text fill="#595959" fill-opacity="1" font-family="Arial,Arial_MSFontService,sans-serif" font-style="normal" font-variant="normal" font-weight="400" font-stretch="normal" font-size="41" text-anchor="start" direction="ltr" writing-mode="lr-tb" unicode-bidi="normal" text-decoration="none" transform="matrix(1 0 0 1 5947.37 3891)">48</text></g><g clip-path="url(#clip60)"><text fill="#595959" fill-opacity="1" font-family="Arial,Arial_MSFontService,sans-serif" font-style="normal" font-variant="normal" font-weight="400" font-stretch="normal" font-size="41" text-anchor="start" direction="ltr" writing-mode="lr-tb" unicode-bidi="normal" text-decoration="none" transform="matrix(1 0 0 1 6047.08 3891)">49</text></g><g clip-path="url(#clip61)"><text fill="#595959" fill-opacity="1" font-family="Arial,Arial_MSFontService,sans-serif" font-style="normal" font-variant="normal" font-weight="400" font-stretch="normal" font-size="41" text-anchor="start" direction="ltr" writing-mode="lr-tb" unicode-bidi="normal" text-decoration="none" transform="matrix(1 0 0 1 6146.79 3891)">50</text></g><g clip-path="url(#clip62)"><text fill="#595959" fill-opacity="1" font-family="Arial,Arial_MSFontService,sans-serif" font-style="normal" font-variant="normal" font-weight="400" font-stretch="normal" font-size="46" text-anchor="start" direction="ltr" writing-mode="lr-tb" unicode-bidi="normal" text-decoration="none" transform="matrix(6.12323e-17 -1 1 6.12323e-17 1083.41 3163)">Step Number</text></g><g clip-path="url(#clip63)"><text fill="#595959" fill-opacity="1" font-family="Arial,Arial_MSFontService,sans-serif" font-style="normal" font-variant="normal" font-weight="400" font-stretch="normal" font-size="46" text-anchor="start" direction="ltr" writing-mode="lr-tb" unicode-bidi="normal" text-decoration="none" transform="matrix(1 0 0 1 3576.56 3957)">Game Number</text></g><g clip-path="url(#clip64)"><text fill="#595959" fill-opacity="1" font-family="Arial,Arial_MSFontService,sans-serif" font-style="normal" font-variant="normal" font-weight="400" font-stretch="normal" font-size="64" text-anchor="start" direction="ltr" writing-mode="lr-tb" unicode-bidi="normal" text-decoration="none" transform="matrix(1 0 0 1 3360.88 2155)">2048 </text></g><g clip-path="url(#clip65)"><text fill="#595959" fill-opacity="1" font-family="Arial,Arial_MSFontService,sans-serif" font-style="normal" font-variant="normal" font-weight="400" font-stretch="normal" font-size="64" text-anchor="start" direction="ltr" writing-mode="lr-tb" unicode-bidi="normal" text-decoration="none" transform="matrix(1 0 0 1 3521.43 2155)">-</text></g><g clip-path="url(#clip66)"><text fill="#595959" fill-opacity="1" font-family="Arial,Arial_MSFontService,sans-serif" font-style="normal" font-variant="normal" font-weight="400" font-stretch="normal" font-size="64" text-anchor="start" direction="ltr" writing-mode="lr-tb" unicode-bidi="normal" text-decoration="none" transform="matrix(1 0 0 1 3560.62 2155)">Expectimax</text></g><rect x="983.5" y="2060.5" width="5287" height="1964" stroke="#D9D9D9" stroke-width="3.4375" stroke-linecap="butt" stroke-linejoin="round" stroke-miterlimit="10" stroke-opacity="1" fill="none"/></g></svg>
