<svg width="3745" height="1939" xmlns="http://www.w3.org/2000/svg" xmlns:xlink="http://www.w3.org/1999/xlink" overflow="hidden"><defs><clipPath id="clip0"><rect x="1159" y="435" width="3745" height="1939"/></clipPath><clipPath id="clip1"><rect x="1161" y="437" width="3738" height="1932"/></clipPath><clipPath id="clip2"><rect x="1161" y="437" width="3738" height="1932"/></clipPath><clipPath id="clip3"><rect x="1161" y="437" width="3738" height="1932"/></clipPath><clipPath id="clip4"><rect x="1161" y="437" width="3738" height="1932"/></clipPath><clipPath id="clip5"><rect x="1410" y="607" width="3421" height="1562"/></clipPath><clipPath id="clip6"><rect x="1161" y="437" width="3738" height="1932"/></clipPath><clipPath id="clip7"><rect x="1161" y="437" width="3738" height="1932"/></clipPath><clipPath id="clip8"><rect x="1161" y="437" width="3738" height="1932"/></clipPath><clipPath id="clip9"><rect x="1161" y="437" width="3738" height="1932"/></clipPath><clipPath id="clip10"><rect x="1161" y="437" width="3738" height="1932"/></clipPath><clipPath id="clip11"><rect x="1161" y="437" width="3738" height="1932"/></clipPath><clipPath id="clip12"><rect x="1161" y="437" width="3738" height="1932"/></clipPath><clipPath id="clip13"><rect x="1161" y="437" width="3738" height="1932"/></clipPath><clipPath id="clip14"><rect x="1161" y="437" width="3738" height="1932"/></clipPath><clipPath id="clip15"><rect x="1161" y="437" width="3738" height="1932"/></clipPath><clipPath id="clip16"><rect x="1161" y="437" width="3738" height="1932"/></clipPath><clipPath id="clip17"><rect x="1161" y="437" width="3738" height="1932"/></clipPath><clipPath id="clip18"><rect x="1161" y="437" width="3738" height="1932"/></clipPath><clipPath id="clip19"><rect x="1161" y="437" width="3738" height="1932"/></clipPath><clipPath id="clip20"><rect x="1161" y="437" width="3738" height="1932"/></clipPath><clipPath id="clip21"><rect x="1161" y="437" width="3738" height="1932"/></clipPath><clipPath id="clip22"><rect x="1161" y="437" width="3738" height="1932"/></clipPath><clipPath id="clip23"><rect x="1161" y="437" width="3738" height="1932"/></clipPath><clipPath id="clip24"><rect x="1161" y="437" width="3738" height="1932"/></clipPath><clipPath id="clip25"><rect x="1161" y="437" width="3738" height="1932"/></clipPath><clipPath id="clip26"><rect x="1161" y="437" width="3738" height="1932"/></clipPath><clipPath id="clip27"><rect x="1161" y="437" width="3738" height="1932"/></clipPath><clipPath id="clip28"><rect x="1161" y="437" width="3738" height="1932"/></clipPath><clipPath id="clip29"><rect x="1161" y="437" width="3738" height="1932"/></clipPath></defs><g clip-path="url(#clip0)" transform="translate(-1159 -435)"><rect x="1162" y="438" width="3738" height="1932" fill="#FFFFFF" fill-opacity="1"/><g clip-path="url(#clip1)"><path d="M1410.5 1974.56 4828.5 1974.56M1410.5 1782.56 4828.5 1782.56M1410.5 1590.55 4828.5 1590.55M1410.5 1398.55 4828.5 1398.55M1410.5 1206.54 4828.5 1206.54M1410.5 1015.53 4828.5 1015.53M1410.5 823.527 4828.5 823.527M1410.5 631.5 4828.5 631.5" stroke="#D9D9D9" stroke-width="3.4375" stroke-linecap="butt" stroke-linejoin="round" stroke-miterlimit="10" stroke-opacity="1" fill="none" fill-rule="nonzero"/></g><g clip-path="url(#clip2)"><path d="M1752.56 607.5 1752.56 2166.5M2094.57 607.5 2094.57 2166.5M2435.58 607.5 2435.58 2166.5M2777.59 607.5 2777.59 2166.5M3119.6 607.5 3119.6 2166.5M3461.61 607.5 3461.61 2166.5M3802.62 607.5 3802.62 2166.5M4144.64 607.5 4144.64 2166.5M4486.65 607.5 4486.65 2166.5M4828.5 607.5 4828.5 2166.5" stroke="#D9D9D9" stroke-width="3.4375" stroke-linecap="butt" stroke-linejoin="round" stroke-miterlimit="10" stroke-opacity="1" fill="none" fill-rule="nonzero"/></g><g clip-path="url(#clip3)"><path d="M0 0 0.000360892 1559" stroke="#BFBFBF" stroke-width="3.4375" stroke-linecap="butt" stroke-linejoin="round" stroke-miterlimit="10" stroke-opacity="1" fill="none" fill-rule="evenodd" transform="matrix(1 0 0 -1 1410.5 2166.5)"/></g><g clip-path="url(#clip4)"><path d="M1410.5 2166.5 4828.5 2166.5" stroke="#BFBFBF" stroke-width="3.4375" stroke-linecap="butt" stroke-linejoin="round" stroke-miterlimit="10" stroke-opacity="1" fill="none" fill-rule="evenodd"/></g><g clip-path="url(#clip5)"><path d="M1479.5 1380.55 1547.55 594.5 1615.55 1969.56 1684.56 1773.56 1752.56 594.5 1820.56 1380.55 1889.56 1380.55 1957.56 1773.56 2025.57 1773.56 2094.57 1773.56 2162.57 1773.56 2230.57 1380.55 2299.58 1773.56 2367.58 1773.56 2435.58 1380.55 2504.58 1773.56 2572.58 1773.56 2640.59 1773.56 2709.59 1773.56 2777.59 1773.56 2845.59 1380.55 2914.6 2067.5 2982.6 1380.55 3051.6 1773.56 3119.6 1773.56 3187.6 1773.56 3256.61 1380.55 3324.61 1380.55 3392.61 1773.56 3461.61 1380.55 3529.62 1380.55 3597.62 1969.56 3666.62 1380.55 3734.62 1380.55 3802.62 1380.55 3871.63 1773.56 3939.63 1380.55 4007.63 1773.56 4076.63 1773.56 4144.64 1380.55 4212.64 1773.56 4281.64 1969.56 4349.64 1380.55 4418.65 1380.55 4486.65 1773.56 4554.65 1380.55 4623.65 1380.55 4691.65 1773.56 4759.66 1773.56 4828.5 1773.56" stroke="#4472C4" stroke-width="6.875" stroke-linecap="round" stroke-linejoin="round" stroke-miterlimit="10" stroke-opacity="1" fill="none" fill-rule="nonzero"/></g><g clip-path="url(#clip6)"><path d="M1490.37 1380.21C1490.37 1386.28 1485.45 1391.21 1479.37 1391.21 1473.3 1391.21 1468.38 1386.28 1468.38 1380.21 1468.38 1374.13 1473.3 1369.21 1479.37 1369.21 1485.45 1369.21 1490.37 1374.13 1490.37 1380.21Z" stroke="#4472C4" stroke-width="3.4375" stroke-linecap="butt" stroke-linejoin="round" stroke-miterlimit="10" stroke-opacity="1" fill="#4472C4" fill-rule="nonzero" fill-opacity="1"/><path d="M1626.37 1969.21C1626.37 1975.28 1621.45 1980.21 1615.38 1980.21 1609.3 1980.21 1604.38 1975.28 1604.38 1969.21 1604.38 1963.13 1609.3 1958.21 1615.38 1958.21 1621.45 1958.21 1626.37 1963.13 1626.37 1969.21Z" stroke="#4472C4" stroke-width="3.4375" stroke-linecap="butt" stroke-linejoin="round" stroke-miterlimit="10" stroke-opacity="1" fill="#4472C4" fill-rule="nonzero" fill-opacity="1"/><path d="M1695.37 1773.21C1695.37 1779.28 1690.45 1784.21 1684.37 1784.21 1678.3 1784.21 1673.38 1779.28 1673.38 1773.21 1673.38 1767.13 1678.3 1762.21 1684.37 1762.21 1690.45 1762.21 1695.37 1767.13 1695.37 1773.21Z" stroke="#4472C4" stroke-width="3.4375" stroke-linecap="butt" stroke-linejoin="round" stroke-miterlimit="10" stroke-opacity="1" fill="#4472C4" fill-rule="nonzero" fill-opacity="1"/><path d="M1831.37 1380.21C1831.37 1386.28 1826.45 1391.21 1820.37 1391.21 1814.3 1391.21 1809.38 1386.28 1809.38 1380.21 1809.38 1374.13 1814.3 1369.21 1820.37 1369.21 1826.45 1369.21 1831.37 1374.13 1831.37 1380.21Z" stroke="#4472C4" stroke-width="3.4375" stroke-linecap="butt" stroke-linejoin="round" stroke-miterlimit="10" stroke-opacity="1" fill="#4472C4" fill-rule="nonzero" fill-opacity="1"/><path d="M1900.37 1380.21C1900.37 1386.28 1895.45 1391.21 1889.37 1391.21 1883.3 1391.21 1878.38 1386.28 1878.38 1380.21 1878.38 1374.13 1883.3 1369.21 1889.37 1369.21 1895.45 1369.21 1900.37 1374.13 1900.37 1380.21Z" stroke="#4472C4" stroke-width="3.4375" stroke-linecap="butt" stroke-linejoin="round" stroke-miterlimit="10" stroke-opacity="1" fill="#4472C4" fill-rule="nonzero" fill-opacity="1"/><path d="M1968.37 1773.21C1968.37 1779.28 1963.45 1784.21 1957.38 1784.21 1951.3 1784.21 1946.38 1779.28 1946.38 1773.21 1946.38 1767.13 1951.3 1762.21 1957.38 1762.21 1963.45 1762.21 1968.37 1767.13 1968.37 1773.21Z" stroke="#4472C4" stroke-width="3.4375" stroke-linecap="butt" stroke-linejoin="round" stroke-miterlimit="10" stroke-opacity="1" fill="#4472C4" fill-rule="nonzero" fill-opacity="1"/><path d="M2036.37 1773.21C2036.37 1779.28 2031.45 1784.21 2025.37 1784.21 2019.3 1784.21 2014.38 1779.28 2014.38 1773.21 2014.38 1767.13 2019.3 1762.21 2025.37 1762.21 2031.45 1762.21 2036.37 1767.13 2036.37 1773.21Z" stroke="#4472C4" stroke-width="3.4375" stroke-linecap="butt" stroke-linejoin="round" stroke-miterlimit="10" stroke-opacity="1" fill="#4472C4" fill-rule="nonzero" fill-opacity="1"/><path d="M2105.37 1773.21C2105.37 1779.28 2100.45 1784.21 2094.37 1784.21 2088.3 1784.21 2083.38 1779.28 2083.38 1773.21 2083.38 1767.13 2088.3 1762.21 2094.37 1762.21 2100.45 1762.21 2105.37 1767.13 2105.37 1773.21Z" stroke="#4472C4" stroke-width="3.4375" stroke-linecap="butt" stroke-linejoin="round" stroke-miterlimit="10" stroke-opacity="1" fill="#4472C4" fill-rule="nonzero" fill-opacity="1"/><path d="M2173.37 1773.21C2173.37 1779.28 2168.45 1784.21 2162.37 1784.21 2156.3 1784.21 2151.38 1779.28 2151.38 1773.21 2151.38 1767.13 2156.3 1762.21 2162.37 1762.21 2168.45 1762.21 2173.37 1767.13 2173.37 1773.21Z" stroke="#4472C4" stroke-width="3.4375" stroke-linecap="butt" stroke-linejoin="round" stroke-miterlimit="10" stroke-opacity="1" fill="#4472C4" fill-rule="nonzero" fill-opacity="1"/><path d="M2241.37 1380.21C2241.37 1386.28 2236.45 1391.21 2230.37 1391.21 2224.3 1391.21 2219.38 1386.28 2219.38 1380.21 2219.38 1374.13 2224.3 1369.21 2230.37 1369.21 2236.45 1369.21 2241.37 1374.13 2241.37 1380.21Z" stroke="#4472C4" stroke-width="3.4375" stroke-linecap="butt" stroke-linejoin="round" stroke-miterlimit="10" stroke-opacity="1" fill="#4472C4" fill-rule="nonzero" fill-opacity="1"/><path d="M2310.37 1773.21C2310.37 1779.28 2305.45 1784.21 2299.38 1784.21 2293.3 1784.21 2288.38 1779.28 2288.38 1773.21 2288.38 1767.13 2293.3 1762.21 2299.38 1762.21 2305.45 1762.21 2310.37 1767.13 2310.37 1773.21Z" stroke="#4472C4" stroke-width="3.4375" stroke-linecap="butt" stroke-linejoin="round" stroke-miterlimit="10" stroke-opacity="1" fill="#4472C4" fill-rule="nonzero" fill-opacity="1"/><path d="M2378.37 1773.21C2378.37 1779.28 2373.45 1784.21 2367.37 1784.21 2361.3 1784.21 2356.38 1779.28 2356.38 1773.21 2356.38 1767.13 2361.3 1762.21 2367.37 1762.21 2373.45 1762.21 2378.37 1767.13 2378.37 1773.21Z" stroke="#4472C4" stroke-width="3.4375" stroke-linecap="butt" stroke-linejoin="round" stroke-miterlimit="10" stroke-opacity="1" fill="#4472C4" fill-rule="nonzero" fill-opacity="1"/><path d="M2446.37 1380.21C2446.37 1386.28 2441.45 1391.21 2435.37 1391.21 2429.3 1391.21 2424.38 1386.28 2424.38 1380.21 2424.38 1374.13 2429.3 1369.21 2435.37 1369.21 2441.45 1369.21 2446.37 1374.13 2446.37 1380.21Z" stroke="#4472C4" stroke-width="3.4375" stroke-linecap="butt" stroke-linejoin="round" stroke-miterlimit="10" stroke-opacity="1" fill="#4472C4" fill-rule="nonzero" fill-opacity="1"/><path d="M2515.37 1773.21C2515.37 1779.28 2510.45 1784.21 2504.37 1784.21 2498.3 1784.21 2493.38 1779.28 2493.38 1773.21 2493.38 1767.13 2498.3 1762.21 2504.37 1762.21 2510.45 1762.21 2515.37 1767.13 2515.37 1773.21Z" stroke="#4472C4" stroke-width="3.4375" stroke-linecap="butt" stroke-linejoin="round" stroke-miterlimit="10" stroke-opacity="1" fill="#4472C4" fill-rule="nonzero" fill-opacity="1"/><path d="M2583.37 1773.21C2583.37 1779.28 2578.45 1784.21 2572.37 1784.21 2566.3 1784.21 2561.38 1779.28 2561.38 1773.21 2561.38 1767.13 2566.3 1762.21 2572.37 1762.21 2578.45 1762.21 2583.37 1767.13 2583.37 1773.21Z" stroke="#4472C4" stroke-width="3.4375" stroke-linecap="butt" stroke-linejoin="round" stroke-miterlimit="10" stroke-opacity="1" fill="#4472C4" fill-rule="nonzero" fill-opacity="1"/><path d="M2652.37 1773.21C2652.37 1779.28 2647.45 1784.21 2641.37 1784.21 2635.3 1784.21 2630.38 1779.28 2630.38 1773.21 2630.38 1767.13 2635.3 1762.21 2641.37 1762.21 2647.45 1762.21 2652.37 1767.13 2652.37 1773.21Z" stroke="#4472C4" stroke-width="3.4375" stroke-linecap="butt" stroke-linejoin="round" stroke-miterlimit="10" stroke-opacity="1" fill="#4472C4" fill-rule="nonzero" fill-opacity="1"/><path d="M2720.37 1773.21C2720.37 1779.28 2715.45 1784.21 2709.37 1784.21 2703.3 1784.21 2698.38 1779.28 2698.38 1773.21 2698.38 1767.13 2703.3 1762.21 2709.37 1762.21 2715.45 1762.21 2720.37 1767.13 2720.37 1773.21Z" stroke="#4472C4" stroke-width="3.4375" stroke-linecap="butt" stroke-linejoin="round" stroke-miterlimit="10" stroke-opacity="1" fill="#4472C4" fill-rule="nonzero" fill-opacity="1"/><path d="M2788.37 1773.21C2788.37 1779.28 2783.45 1784.21 2777.37 1784.21 2771.3 1784.21 2766.38 1779.28 2766.38 1773.21 2766.38 1767.13 2771.3 1762.21 2777.37 1762.21 2783.45 1762.21 2788.37 1767.13 2788.37 1773.21Z" stroke="#4472C4" stroke-width="3.4375" stroke-linecap="butt" stroke-linejoin="round" stroke-miterlimit="10" stroke-opacity="1" fill="#4472C4" fill-rule="nonzero" fill-opacity="1"/><path d="M2857.37 1380.21C2857.37 1386.28 2852.45 1391.21 2846.37 1391.21 2840.3 1391.21 2835.38 1386.28 2835.38 1380.21 2835.38 1374.13 2840.3 1369.21 2846.37 1369.21 2852.45 1369.21 2857.37 1374.13 2857.37 1380.21Z" stroke="#4472C4" stroke-width="3.4375" stroke-linecap="butt" stroke-linejoin="round" stroke-miterlimit="10" stroke-opacity="1" fill="#4472C4" fill-rule="nonzero" fill-opacity="1"/><path d="M2925.37 2067.21C2925.37 2073.28 2920.45 2078.21 2914.37 2078.21 2908.3 2078.21 2903.38 2073.28 2903.38 2067.21 2903.38 2061.13 2908.3 2056.21 2914.37 2056.21 2920.45 2056.21 2925.37 2061.13 2925.37 2067.21Z" stroke="#4472C4" stroke-width="3.4375" stroke-linecap="butt" stroke-linejoin="round" stroke-miterlimit="10" stroke-opacity="1" fill="#4472C4" fill-rule="nonzero" fill-opacity="1"/><path d="M2993.37 1380.21C2993.37 1386.28 2988.45 1391.21 2982.37 1391.21 2976.3 1391.21 2971.38 1386.28 2971.38 1380.21 2971.38 1374.13 2976.3 1369.21 2982.37 1369.21 2988.45 1369.21 2993.37 1374.13 2993.37 1380.21Z" stroke="#4472C4" stroke-width="3.4375" stroke-linecap="butt" stroke-linejoin="round" stroke-miterlimit="10" stroke-opacity="1" fill="#4472C4" fill-rule="nonzero" fill-opacity="1"/><path d="M3062.37 1773.21C3062.37 1779.28 3057.45 1784.21 3051.37 1784.21 3045.3 1784.21 3040.38 1779.28 3040.38 1773.21 3040.38 1767.13 3045.3 1762.21 3051.37 1762.21 3057.45 1762.21 3062.37 1767.13 3062.37 1773.21Z" stroke="#4472C4" stroke-width="3.4375" stroke-linecap="butt" stroke-linejoin="round" stroke-miterlimit="10" stroke-opacity="1" fill="#4472C4" fill-rule="nonzero" fill-opacity="1"/><path d="M3130.37 1773.21C3130.37 1779.28 3125.45 1784.21 3119.37 1784.21 3113.3 1784.21 3108.38 1779.28 3108.38 1773.21 3108.38 1767.13 3113.3 1762.21 3119.37 1762.21 3125.45 1762.21 3130.37 1767.13 3130.37 1773.21Z" stroke="#4472C4" stroke-width="3.4375" stroke-linecap="butt" stroke-linejoin="round" stroke-miterlimit="10" stroke-opacity="1" fill="#4472C4" fill-rule="nonzero" fill-opacity="1"/><path d="M3198.37 1773.21C3198.37 1779.28 3193.45 1784.21 3187.37 1784.21 3181.3 1784.21 3176.38 1779.28 3176.38 1773.21 3176.38 1767.13 3181.3 1762.21 3187.37 1762.21 3193.45 1762.21 3198.37 1767.13 3198.37 1773.21Z" stroke="#4472C4" stroke-width="3.4375" stroke-linecap="butt" stroke-linejoin="round" stroke-miterlimit="10" stroke-opacity="1" fill="#4472C4" fill-rule="nonzero" fill-opacity="1"/><path d="M3267.37 1380.21C3267.37 1386.28 3262.45 1391.21 3256.38 1391.21 3250.3 1391.21 3245.38 1386.28 3245.38 1380.21 3245.38 1374.13 3250.3 1369.21 3256.38 1369.21 3262.45 1369.21 3267.37 1374.13 3267.37 1380.21Z" stroke="#4472C4" stroke-width="3.4375" stroke-linecap="butt" stroke-linejoin="round" stroke-miterlimit="10" stroke-opacity="1" fill="#4472C4" fill-rule="nonzero" fill-opacity="1"/><path d="M3335.37 1380.21C3335.37 1386.28 3330.45 1391.21 3324.37 1391.21 3318.3 1391.21 3313.38 1386.28 3313.38 1380.21 3313.38 1374.13 3318.3 1369.21 3324.37 1369.21 3330.45 1369.21 3335.37 1374.13 3335.37 1380.21Z" stroke="#4472C4" stroke-width="3.4375" stroke-linecap="butt" stroke-linejoin="round" stroke-miterlimit="10" stroke-opacity="1" fill="#4472C4" fill-rule="nonzero" fill-opacity="1"/><path d="M3403.37 1773.21C3403.37 1779.28 3398.45 1784.21 3392.37 1784.21 3386.3 1784.21 3381.38 1779.28 3381.38 1773.21 3381.38 1767.13 3386.3 1762.21 3392.37 1762.21 3398.45 1762.21 3403.37 1767.13 3403.37 1773.21Z" stroke="#4472C4" stroke-width="3.4375" stroke-linecap="butt" stroke-linejoin="round" stroke-miterlimit="10" stroke-opacity="1" fill="#4472C4" fill-rule="nonzero" fill-opacity="1"/><path d="M3472.37 1380.21C3472.37 1386.28 3467.45 1391.21 3461.37 1391.21 3455.3 1391.21 3450.38 1386.28 3450.38 1380.21 3450.38 1374.13 3455.3 1369.21 3461.37 1369.21 3467.45 1369.21 3472.37 1374.13 3472.37 1380.21Z" stroke="#4472C4" stroke-width="3.4375" stroke-linecap="butt" stroke-linejoin="round" stroke-miterlimit="10" stroke-opacity="1" fill="#4472C4" fill-rule="nonzero" fill-opacity="1"/><path d="M3540.37 1380.21C3540.37 1386.28 3535.45 1391.21 3529.37 1391.21 3523.3 1391.21 3518.38 1386.28 3518.38 1380.21 3518.38 1374.13 3523.3 1369.21 3529.37 1369.21 3535.45 1369.21 3540.37 1374.13 3540.37 1380.21Z" stroke="#4472C4" stroke-width="3.4375" stroke-linecap="butt" stroke-linejoin="round" stroke-miterlimit="10" stroke-opacity="1" fill="#4472C4" fill-rule="nonzero" fill-opacity="1"/><path d="M3608.37 1969.21C3608.37 1975.28 3603.45 1980.21 3597.38 1980.21 3591.3 1980.21 3586.38 1975.28 3586.38 1969.21 3586.38 1963.13 3591.3 1958.21 3597.38 1958.21 3603.45 1958.21 3608.37 1963.13 3608.37 1969.21Z" stroke="#4472C4" stroke-width="3.4375" stroke-linecap="butt" stroke-linejoin="round" stroke-miterlimit="10" stroke-opacity="1" fill="#4472C4" fill-rule="nonzero" fill-opacity="1"/><path d="M3677.37 1380.21C3677.37 1386.28 3672.45 1391.21 3666.37 1391.21 3660.3 1391.21 3655.38 1386.28 3655.38 1380.21 3655.38 1374.13 3660.3 1369.21 3666.37 1369.21 3672.45 1369.21 3677.37 1374.13 3677.37 1380.21Z" stroke="#4472C4" stroke-width="3.4375" stroke-linecap="butt" stroke-linejoin="round" stroke-miterlimit="10" stroke-opacity="1" fill="#4472C4" fill-rule="nonzero" fill-opacity="1"/><path d="M3745.37 1380.21C3745.37 1386.28 3740.45 1391.21 3734.37 1391.21 3728.3 1391.21 3723.38 1386.28 3723.38 1380.21 3723.38 1374.13 3728.3 1369.21 3734.37 1369.21 3740.45 1369.21 3745.37 1374.13 3745.37 1380.21Z" stroke="#4472C4" stroke-width="3.4375" stroke-linecap="butt" stroke-linejoin="round" stroke-miterlimit="10" stroke-opacity="1" fill="#4472C4" fill-rule="nonzero" fill-opacity="1"/><path d="M3813.37 1380.21C3813.37 1386.28 3808.45 1391.21 3802.37 1391.21 3796.3 1391.21 3791.38 1386.28 3791.38 1380.21 3791.38 1374.13 3796.3 1369.21 3802.37 1369.21 3808.45 1369.21 3813.37 1374.13 3813.37 1380.21Z" stroke="#4472C4" stroke-width="3.4375" stroke-linecap="butt" stroke-linejoin="round" stroke-miterlimit="10" stroke-opacity="1" fill="#4472C4" fill-rule="nonzero" fill-opacity="1"/><path d="M3882.37 1773.21C3882.37 1779.28 3877.45 1784.21 3871.37 1784.21 3865.3 1784.21 3860.38 1779.28 3860.38 1773.21 3860.38 1767.13 3865.3 1762.21 3871.37 1762.21 3877.45 1762.21 3882.37 1767.13 3882.37 1773.21Z" stroke="#4472C4" stroke-width="3.4375" stroke-linecap="butt" stroke-linejoin="round" stroke-miterlimit="10" stroke-opacity="1" fill="#4472C4" fill-rule="nonzero" fill-opacity="1"/><path d="M3950.37 1380.21C3950.37 1386.28 3945.45 1391.21 3939.37 1391.21 3933.3 1391.21 3928.38 1386.28 3928.38 1380.21 3928.38 1374.13 3933.3 1369.21 3939.37 1369.21 3945.45 1369.21 3950.37 1374.13 3950.37 1380.21Z" stroke="#4472C4" stroke-width="3.4375" stroke-linecap="butt" stroke-linejoin="round" stroke-miterlimit="10" stroke-opacity="1" fill="#4472C4" fill-rule="nonzero" fill-opacity="1"/><path d="M4019.37 1773.21C4019.37 1779.28 4014.45 1784.21 4008.37 1784.21 4002.3 1784.21 3997.38 1779.28 3997.38 1773.21 3997.38 1767.13 4002.3 1762.21 4008.37 1762.21 4014.45 1762.21 4019.37 1767.13 4019.37 1773.21Z" stroke="#4472C4" stroke-width="3.4375" stroke-linecap="butt" stroke-linejoin="round" stroke-miterlimit="10" stroke-opacity="1" fill="#4472C4" fill-rule="nonzero" fill-opacity="1"/><path d="M4087.37 1773.21C4087.37 1779.28 4082.45 1784.21 4076.37 1784.21 4070.3 1784.21 4065.38 1779.28 4065.38 1773.21 4065.38 1767.13 4070.3 1762.21 4076.37 1762.21 4082.45 1762.21 4087.37 1767.13 4087.37 1773.21Z" stroke="#4472C4" stroke-width="3.4375" stroke-linecap="butt" stroke-linejoin="round" stroke-miterlimit="10" stroke-opacity="1" fill="#4472C4" fill-rule="nonzero" fill-opacity="1"/><path d="M4155.37 1380.21C4155.37 1386.28 4150.45 1391.21 4144.38 1391.21 4138.3 1391.21 4133.38 1386.28 4133.38 1380.21 4133.38 1374.13 4138.3 1369.21 4144.38 1369.21 4150.45 1369.21 4155.37 1374.13 4155.37 1380.21Z" stroke="#4472C4" stroke-width="3.4375" stroke-linecap="butt" stroke-linejoin="round" stroke-miterlimit="10" stroke-opacity="1" fill="#4472C4" fill-rule="nonzero" fill-opacity="1"/><path d="M4224.37 1773.21C4224.37 1779.28 4219.45 1784.21 4213.38 1784.21 4207.3 1784.21 4202.38 1779.28 4202.38 1773.21 4202.38 1767.13 4207.3 1762.21 4213.38 1762.21 4219.45 1762.21 4224.37 1767.13 4224.37 1773.21Z" stroke="#4472C4" stroke-width="3.4375" stroke-linecap="butt" stroke-linejoin="round" stroke-miterlimit="10" stroke-opacity="1" fill="#4472C4" fill-rule="nonzero" fill-opacity="1"/><path d="M4292.37 1969.21C4292.37 1975.28 4287.45 1980.21 4281.38 1980.21 4275.3 1980.21 4270.38 1975.28 4270.38 1969.21 4270.38 1963.13 4275.3 1958.21 4281.38 1958.21 4287.45 1958.21 4292.37 1963.13 4292.37 1969.21Z" stroke="#4472C4" stroke-width="3.4375" stroke-linecap="butt" stroke-linejoin="round" stroke-miterlimit="10" stroke-opacity="1" fill="#4472C4" fill-rule="nonzero" fill-opacity="1"/><path d="M4360.37 1380.21C4360.37 1386.28 4355.45 1391.21 4349.38 1391.21 4343.3 1391.21 4338.38 1386.28 4338.38 1380.21 4338.38 1374.13 4343.3 1369.21 4349.38 1369.21 4355.45 1369.21 4360.37 1374.13 4360.37 1380.21Z" stroke="#4472C4" stroke-width="3.4375" stroke-linecap="butt" stroke-linejoin="round" stroke-miterlimit="10" stroke-opacity="1" fill="#4472C4" fill-rule="nonzero" fill-opacity="1"/><path d="M4429.37 1380.21C4429.37 1386.28 4424.45 1391.21 4418.38 1391.21 4412.3 1391.21 4407.38 1386.28 4407.38 1380.21 4407.38 1374.13 4412.3 1369.21 4418.38 1369.21 4424.45 1369.21 4429.37 1374.13 4429.37 1380.21Z" stroke="#4472C4" stroke-width="3.4375" stroke-linecap="butt" stroke-linejoin="round" stroke-miterlimit="10" stroke-opacity="1" fill="#4472C4" fill-rule="nonzero" fill-opacity="1"/><path d="M4497.37 1773.21C4497.37 1779.28 4492.45 1784.21 4486.38 1784.21 4480.3 1784.21 4475.38 1779.28 4475.38 1773.21 4475.38 1767.13 4480.3 1762.21 4486.38 1762.21 4492.45 1762.21 4497.37 1767.13 4497.37 1773.21Z" stroke="#4472C4" stroke-width="3.4375" stroke-linecap="butt" stroke-linejoin="round" stroke-miterlimit="10" stroke-opacity="1" fill="#4472C4" fill-rule="nonzero" fill-opacity="1"/><path d="M4565.37 1380.21C4565.37 1386.28 4560.45 1391.21 4554.38 1391.21 4548.3 1391.21 4543.38 1386.28 4543.38 1380.21 4543.38 1374.13 4548.3 1369.21 4554.38 1369.21 4560.45 1369.21 4565.37 1374.13 4565.37 1380.21Z" stroke="#4472C4" stroke-width="3.4375" stroke-linecap="butt" stroke-linejoin="round" stroke-miterlimit="10" stroke-opacity="1" fill="#4472C4" fill-rule="nonzero" fill-opacity="1"/><path d="M4634.37 1380.21C4634.37 1386.28 4629.45 1391.21 4623.38 1391.21 4617.3 1391.21 4612.38 1386.28 4612.38 1380.21 4612.38 1374.13 4617.3 1369.21 4623.38 1369.21 4629.45 1369.21 4634.37 1374.13 4634.37 1380.21Z" stroke="#4472C4" stroke-width="3.4375" stroke-linecap="butt" stroke-linejoin="round" stroke-miterlimit="10" stroke-opacity="1" fill="#4472C4" fill-rule="nonzero" fill-opacity="1"/><path d="M4702.37 1773.21C4702.37 1779.28 4697.45 1784.21 4691.38 1784.21 4685.3 1784.21 4680.38 1779.28 4680.38 1773.21 4680.38 1767.13 4685.3 1762.21 4691.38 1762.21 4697.45 1762.21 4702.37 1767.13 4702.37 1773.21Z" stroke="#4472C4" stroke-width="3.4375" stroke-linecap="butt" stroke-linejoin="round" stroke-miterlimit="10" stroke-opacity="1" fill="#4472C4" fill-rule="nonzero" fill-opacity="1"/><path d="M4770.37 1773.21C4770.37 1779.28 4765.45 1784.21 4759.38 1784.21 4753.3 1784.21 4748.38 1779.28 4748.38 1773.21 4748.38 1767.13 4753.3 1762.21 4759.38 1762.21 4765.45 1762.21 4770.37 1767.13 4770.37 1773.21Z" stroke="#4472C4" stroke-width="3.4375" stroke-linecap="butt" stroke-linejoin="round" stroke-miterlimit="10" stroke-opacity="1" fill="#4472C4" fill-rule="nonzero" fill-opacity="1"/><path d="M4839.37 1773.21C4839.37 1779.28 4834.45 1784.21 4828.38 1784.21 4822.3 1784.21 4817.38 1779.28 4817.38 1773.21 4817.38 1767.13 4822.3 1762.21 4828.38 1762.21 4834.45 1762.21 4839.37 1767.13 4839.37 1773.21Z" stroke="#4472C4" stroke-width="3.4375" stroke-linecap="butt" stroke-linejoin="round" stroke-miterlimit="10" stroke-opacity="1" fill="#4472C4" fill-rule="nonzero" fill-opacity="1"/></g><g clip-path="url(#clip7)"><text fill="#595959" fill-opacity="1" font-family="Calibri,Calibri_MSFontService,sans-serif" font-style="normal" font-variant="normal" font-weight="400" font-stretch="normal" font-size="41" text-anchor="start" direction="ltr" writing-mode="lr-tb" unicode-bidi="normal" text-decoration="none" transform="matrix(1 0 0 1 1351.56 2177)">0</text></g><g clip-path="url(#clip8)"><text fill="#595959" fill-opacity="1" font-family="Calibri,Calibri_MSFontService,sans-serif" font-style="normal" font-variant="normal" font-weight="400" font-stretch="normal" font-size="41" text-anchor="start" direction="ltr" writing-mode="lr-tb" unicode-bidi="normal" text-decoration="none" transform="matrix(1 0 0 1 1288.86 1985)">1000</text></g><g clip-path="url(#clip9)"><text fill="#595959" fill-opacity="1" font-family="Calibri,Calibri_MSFontService,sans-serif" font-style="normal" font-variant="normal" font-weight="400" font-stretch="normal" font-size="41" text-anchor="start" direction="ltr" writing-mode="lr-tb" unicode-bidi="normal" text-decoration="none" transform="matrix(1 0 0 1 1288.86 1793)">2000</text></g><g clip-path="url(#clip10)"><text fill="#595959" fill-opacity="1" font-family="Calibri,Calibri_MSFontService,sans-serif" font-style="normal" font-variant="normal" font-weight="400" font-stretch="normal" font-size="41" text-anchor="start" direction="ltr" writing-mode="lr-tb" unicode-bidi="normal" text-decoration="none" transform="matrix(1 0 0 1 1288.86 1601)">3000</text></g><g clip-path="url(#clip11)"><text fill="#595959" fill-opacity="1" font-family="Calibri,Calibri_MSFontService,sans-serif" font-style="normal" font-variant="normal" font-weight="400" font-stretch="normal" font-size="41" text-anchor="start" direction="ltr" writing-mode="lr-tb" unicode-bidi="normal" text-decoration="none" transform="matrix(1 0 0 1 1288.86 1409)">4000</text></g><g clip-path="url(#clip12)"><text fill="#595959" fill-opacity="1" font-family="Calibri,Calibri_MSFontService,sans-serif" font-style="normal" font-variant="normal" font-weight="400" font-stretch="normal" font-size="41" text-anchor="start" direction="ltr" writing-mode="lr-tb" unicode-bidi="normal" text-decoration="none" transform="matrix(1 0 0 1 1288.86 1217)">5000</text></g><g clip-path="url(#clip13)"><text fill="#595959" fill-opacity="1" font-family="Calibri,Calibri_MSFontService,sans-serif" font-style="normal" font-variant="normal" font-weight="400" font-stretch="normal" font-size="41" text-anchor="start" direction="ltr" writing-mode="lr-tb" unicode-bidi="normal" text-decoration="none" transform="matrix(1 0 0 1 1288.86 1026)">6000</text></g><g clip-path="url(#clip14)"><text fill="#595959" fill-opacity="1" font-family="Calibri,Calibri_MSFontService,sans-serif" font-style="normal" font-variant="normal" font-weight="400" font-stretch="normal" font-size="41" text-anchor="start" direction="ltr" writing-mode="lr-tb" unicode-bidi="normal" text-decoration="none" transform="matrix(1 0 0 1 1288.86 834)">7000</text></g><g clip-path="url(#clip15)"><text fill="#595959" fill-opacity="1" font-family="Calibri,Calibri_MSFontService,sans-serif" font-style="normal" font-variant="normal" font-weight="400" font-stretch="normal" font-size="41" text-anchor="start" direction="ltr" writing-mode="lr-tb" unicode-bidi="normal" text-decoration="none" transform="matrix(1 0 0 1 1288.86 642)">8000</text></g><g clip-path="url(#clip16)"><text fill="#595959" fill-opacity="1" font-family="Calibri,Calibri_MSFontService,sans-serif" font-style="normal" font-variant="normal" font-weight="400" font-stretch="normal" font-size="41" text-anchor="start" direction="ltr" writing-mode="lr-tb" unicode-bidi="normal" text-decoration="none" transform="matrix(1 0 0 1 1400.25 2231)">0</text></g><g clip-path="url(#clip17)"><text fill="#595959" fill-opacity="1" font-family="Calibri,Calibri_MSFontService,sans-serif" font-style="normal" font-variant="normal" font-weight="400" font-stretch="normal" font-size="41" text-anchor="start" direction="ltr" writing-mode="lr-tb" unicode-bidi="normal" text-decoration="none" transform="matrix(1 0 0 1 1742.01 2231)">5</text></g><g clip-path="url(#clip18)"><text fill="#595959" fill-opacity="1" font-family="Calibri,Calibri_MSFontService,sans-serif" font-style="normal" font-variant="normal" font-weight="400" font-stretch="normal" font-size="41" text-anchor="start" direction="ltr" writing-mode="lr-tb" unicode-bidi="normal" text-decoration="none" transform="matrix(1 0 0 1 2073.32 2231)">10</text></g><g clip-path="url(#clip19)"><text fill="#595959" fill-opacity="1" font-family="Calibri,Calibri_MSFontService,sans-serif" font-style="normal" font-variant="normal" font-weight="400" font-stretch="normal" font-size="41" text-anchor="start" direction="ltr" writing-mode="lr-tb" unicode-bidi="normal" text-decoration="none" transform="matrix(1 0 0 1 2415.07 2231)">15</text></g><g clip-path="url(#clip20)"><text fill="#595959" fill-opacity="1" font-family="Calibri,Calibri_MSFontService,sans-serif" font-style="normal" font-variant="normal" font-weight="400" font-stretch="normal" font-size="41" text-anchor="start" direction="ltr" writing-mode="lr-tb" unicode-bidi="normal" text-decoration="none" transform="matrix(1 0 0 1 2756.83 2231)">20</text></g><g clip-path="url(#clip21)"><text fill="#595959" fill-opacity="1" font-family="Calibri,Calibri_MSFontService,sans-serif" font-style="normal" font-variant="normal" font-weight="400" font-stretch="normal" font-size="41" text-anchor="start" direction="ltr" writing-mode="lr-tb" unicode-bidi="normal" text-decoration="none" transform="matrix(1 0 0 1 3098.59 2231)">25</text></g><g clip-path="url(#clip22)"><text fill="#595959" fill-opacity="1" font-family="Calibri,Calibri_MSFontService,sans-serif" font-style="normal" font-variant="normal" font-weight="400" font-stretch="normal" font-size="41" text-anchor="start" direction="ltr" writing-mode="lr-tb" unicode-bidi="normal" text-decoration="none" transform="matrix(1 0 0 1 3440.34 2231)">30</text></g><g clip-path="url(#clip23)"><text fill="#595959" fill-opacity="1" font-family="Calibri,Calibri_MSFontService,sans-serif" font-style="normal" font-variant="normal" font-weight="400" font-stretch="normal" font-size="41" text-anchor="start" direction="ltr" writing-mode="lr-tb" unicode-bidi="normal" text-decoration="none" transform="matrix(1 0 0 1 3782.1 2231)">35</text></g><g clip-path="url(#clip24)"><text fill="#595959" fill-opacity="1" font-family="Calibri,Calibri_MSFontService,sans-serif" font-style="normal" font-variant="normal" font-weight="400" font-stretch="normal" font-size="41" text-anchor="start" direction="ltr" writing-mode="lr-tb" unicode-bidi="normal" text-decoration="none" transform="matrix(1 0 0 1 4123.85 2231)">40</text></g><g clip-path="url(#clip25)"><text fill="#595959" fill-opacity="1" font-family="Calibri,Calibri_MSFontService,sans-serif" font-style="normal" font-variant="normal" font-weight="400" font-stretch="normal" font-size="41" text-anchor="start" direction="ltr" writing-mode="lr-tb" unicode-bidi="normal" text-decoration="none" transform="matrix(1 0 0 1 4465.61 2231)">45</text></g><g clip-path="url(#clip26)"><text fill="#595959" fill-opacity="1" font-family="Calibri,Calibri_MSFontService,sans-serif" font-style="normal" font-variant="normal" font-weight="400" font-stretch="normal" font-size="41" text-anchor="start" direction="ltr" writing-mode="lr-tb" unicode-bidi="normal" text-decoration="none" transform="matrix(1 0 0 1 4807.37 2231)">50</text></g><g clip-path="url(#clip27)"><text fill="#595959" fill-opacity="1" font-family="Calibri,Calibri_MSFontService,sans-serif" font-style="normal" font-variant="normal" font-weight="400" font-stretch="normal" font-size="46" text-anchor="start" direction="ltr" writing-mode="lr-tb" unicode-bidi="normal" text-decoration="none" transform="matrix(6.12323e-17 -1 1 6.12323e-17 1263.17 1624)">Maximum Value Reached</text></g><g clip-path="url(#clip28)"><text fill="#595959" fill-opacity="1" font-family="Calibri,Calibri_MSFontService,sans-serif" font-style="normal" font-variant="normal" font-weight="400" font-stretch="normal" font-size="46" text-anchor="start" direction="ltr" writing-mode="lr-tb" unicode-bidi="normal" text-decoration="none" transform="matrix(1 0 0 1 2982.58 2300)">Game Number</text></g><g clip-path="url(#clip29)"><text fill="#595959" fill-opacity="1" font-family="Calibri,Calibri_MSFontService,sans-serif" font-style="normal" font-variant="normal" font-weight="400" font-stretch="normal" font-size="64" text-anchor="start" direction="ltr" writing-mode="lr-tb" unicode-bidi="normal" text-decoration="none" transform="matrix(1 0 0 1 2516.02 533)">Maximum Value Reached in each Game</text></g><rect x="1162.5" y="438.5" width="3738" height="1932" stroke="#D9D9D9" stroke-width="3.4375" stroke-linecap="butt" stroke-linejoin="round" stroke-miterlimit="10" stroke-opacity="1" fill="none"/></g></svg>